<?xml version="1.0" encoding="utf-8"?>
<svg version="1.1" id="Layer_1" xmlns="http://www.w3.org/2000/svg" xmlns:xlink="http://www.w3.org/1999/xlink" x="0px" y="0px"
	 viewBox="0 0 236.1 85" style="enable-background:new 0 0 236.1 85;" xml:space="preserve">
<style type="text/css">
	.st0{fill:#F37726;}
	.st1{fill:#EEEEEE;}
</style>
<path class="st0" d="M24,83c-5.5-1.6-9.4-4-11.8-7.4C9.9,72,8.7,67.7,8.8,63.3v-8.7c0-3.2-0.7-5.6-2.2-7.4S3,44.6,0,44.6v-6.2
	c3,0,5.2-0.9,6.6-2.6c1.4-1.7,2.2-4.2,2.2-7.4v-8.7C8.7,15.3,9.9,11,12.3,7.4C14.6,4,18.5,1.6,24,0l1.7,5c-2.8,0.8-5.2,2.7-6.6,5.3
	c-1.4,2.9-2.1,6.2-2,9.4v8.7c0.1,2.7-0.6,5.4-1.8,7.8c-1.2,2.2-3,4.1-5.3,5.2c2.3,1.2,4.2,3,5.4,5.3c1.2,2.4,1.8,5.1,1.8,7.8v8.7
	c-0.1,3.2,0.6,6.5,2,9.4c1.4,2.6,3.7,4.5,6.6,5.3L24,83z"/>
<path class="st0" d="M212.5,82.5l-1.7-4.9c2.8-0.8,5.1-2.7,6.4-5.2c1.4-2.9,2.1-6,2-9.2v-8.5c-0.1-2.7,0.6-5.4,1.9-7.8
	c1.3-2.3,3.3-4.1,5.8-5.1c-2.4-1-4.5-2.7-5.8-5c-1.3-2.4-1.9-5.1-1.9-7.9v-8.6c0.1-3.2-0.6-6.4-2-9.3c-1.3-2.6-3.7-4.4-6.4-5.2
	l1.7-4.9c5.3,1.5,9.2,3.9,11.5,7.2c2.4,3.6,3.6,7.8,3.4,12.1v8.6c0,3.1,0.7,5.6,2.1,7.3c1.4,1.7,3.6,2.6,6.6,2.6v6.1
	c-3,0-5.2,0.9-6.6,2.6c-1.4,1.7-2.1,4.2-2.1,7.3v8.5c0.1,4.3-1.1,8.5-3.4,12.1C221.6,78.5,217.8,80.9,212.5,82.5z"/>
<g class="st1">
	<path d="M69.2,61.9H54.5v-1.7c0.8-0.3,1.6-0.6,2.4-0.8c0.8-0.2,1.6-0.4,2.5-0.6V31.8l0.2-7h-0.5l-2,6.4L44.9,61.9h-1.6L31.6,31.2
		l-2.2-7h-0.5l0.1,7.6v26.9c0.8,0.2,1.5,0.4,2.3,0.6c0.8,0.2,1.5,0.5,2.3,0.8v1.7H21v-1.7c0.8-0.3,1.5-0.6,2.4-0.9
		c0.8-0.3,1.6-0.5,2.5-0.6V23.3c-0.8-0.2-1.7-0.4-2.5-0.6c-0.8-0.3-1.6-0.5-2.4-0.9V20h12.3l10.4,27.4l2,6.2h0.1l2-6.3L58.6,20h10.7
		v1.7c-0.7,0.3-1.5,0.6-2.2,0.9c-0.8,0.3-1.5,0.5-2.3,0.6v35.6c0.8,0.2,1.6,0.3,2.4,0.6c0.7,0.2,1.4,0.5,2.1,0.8V61.9z"/>
	<path d="M73.7,35c-0.6-0.2-1.1-0.4-1.6-0.6c-0.5-0.2-1-0.5-1.5-0.8V32H83v1.5c-0.8,0.6-2,1.1-3.4,1.5l7.6,17.7l1.1,3.7h0.1l0.9-3.8
		L95.1,35c-1.2-0.2-2.3-0.7-3.3-1.4V32H102v1.6c-0.8,0.6-2,1-3.4,1.4l-9.3,26.9c-1,2.6-1.9,4.6-2.7,6.2c-0.9,1.6-1.7,2.8-2.6,3.7
		c-0.9,0.9-1.7,1.6-2.6,2c-0.9,0.4-1.9,0.7-2.9,0.9c-0.4-0.8-0.8-1.6-1.2-2.5c-0.3-0.9-0.6-1.8-0.9-2.6l0.8-1.4h6.2
		c0.2-0.3,0.4-0.6,0.6-0.9c0.2-0.3,0.4-0.7,0.6-1.1c0.2-0.4,0.4-1,0.7-1.7c0.2-0.7,0.5-1.5,0.8-2.6L73.7,35z"/>
	<path d="M110.3,57.8c0.5,0.5,1.1,0.9,1.9,1.2c0.8,0.3,1.9,0.5,3.4,0.5c1.3,0,2.5-0.2,3.6-0.5c1.1-0.3,2.1-0.8,2.9-1.5
		c0.8-0.7,1.5-1.5,1.9-2.4c0.5-0.9,0.7-2,0.7-3.2c0-1.6-0.5-2.9-1.5-4c-1-1.1-2.2-2-3.7-2.9c-1.5-0.8-3-1.7-4.8-2.5
		c-1.7-0.8-3.3-1.7-4.8-2.8c-1.5-1.1-2.7-2.4-3.7-4c-1-1.5-1.5-3.5-1.5-5.8c0-1.7,0.3-3.2,0.9-4.5c0.6-1.3,1.4-2.4,2.5-3.4
		c1.1-0.9,2.4-1.6,3.9-2.1c1.5-0.5,3.2-0.7,5.1-0.7c2.4,0,4.7,0.2,6.7,0.6c2,0.4,3.6,0.8,4.8,1.4c0,0.7-0.1,1.5-0.2,2.4
		c-0.1,0.9-0.2,1.8-0.4,2.8c-0.1,1-0.3,1.9-0.4,2.8c-0.2,0.9-0.3,1.7-0.5,2.4h-1.6l-2.4-8.2c-0.7-0.3-1.6-0.6-2.7-0.7
		c-1.1-0.2-2.3-0.2-3.5-0.2c-2.1,0-3.7,0.6-5,1.7c-1.2,1.1-1.9,2.7-1.9,4.8c0,1.6,0.5,3,1.5,4.1c1,1.1,2.2,2.1,3.7,3
		c1.5,0.9,3.1,1.7,4.8,2.5c1.7,0.8,3.3,1.8,4.8,2.8s2.7,2.4,3.7,3.8c1,1.5,1.5,3.3,1.5,5.5c0,1.8-0.3,3.4-1,4.9
		c-0.7,1.5-1.6,2.7-2.8,3.8c-1.2,1-2.8,1.8-4.5,2.4c-1.8,0.6-3.8,0.8-6.1,0.8c-2.5,0-4.8-0.3-6.8-0.9c-2-0.6-3.4-1.2-4.2-1.9
		c0-0.7,0.1-1.5,0.2-2.5c0.1-1,0.2-1.9,0.4-3c0.1-1,0.3-2,0.4-3c0.2-1,0.3-1.8,0.5-2.5h1.6L110.3,57.8z"/>
	<path d="M160.4,61.9h-16.8v-1.7c0.9-0.3,1.8-0.6,2.7-0.8c0.9-0.2,1.9-0.4,2.9-0.6V23.2H140l-3.2,8.6h-1.5c-0.1-0.8-0.2-1.7-0.3-2.7
		c-0.1-1-0.1-2.1-0.2-3.1c-0.1-1.1-0.1-2.1-0.1-3.1c0-1-0.1-1.9-0.1-2.7h34.8c0,0.8,0,1.7-0.1,2.7c0,1-0.1,2-0.2,3.1
		c-0.1,1.1-0.1,2.1-0.2,3.1c-0.1,1-0.2,1.9-0.3,2.8h-1.6l-3.1-8.6h-9.1v35.6c1,0.2,2,0.4,2.9,0.6c0.9,0.2,1.8,0.5,2.6,0.8V61.9z"/>
</g>
<g class="st0">
	<path d="M176.9,35.5l-4-0.5v-1.6c1.2-0.6,2.4-1,3.8-1.3s2.7-0.6,4-0.8h1.5v28.1c0,2.8-0.4,5.2-1.1,7.1
		c-0.7,1.9-1.6,3.4-2.5,4.5c-1,1.2-1.9,2-2.9,2.6c-1,0.6-1.8,0.9-2.4,1.1l-0.7-1.1c0.5-0.2,1-0.7,1.5-1.3s1-1.4,1.4-2.5
		c0.4-1.1,0.8-2.3,1-3.9c0.3-1.5,0.4-3.3,0.4-5.4V35.5z M175.7,21.8c0-1.1,0.3-1.9,1-2.6c0.7-0.6,1.6-1,2.8-1s2.1,0.3,2.8,1
		c0.7,0.6,1,1.5,1,2.6s-0.3,1.9-1,2.5c-0.7,0.6-1.6,0.9-2.8,0.9s-2.1-0.3-2.8-0.9C176,23.8,175.7,22.9,175.7,21.8z"/>
	<path d="M205.4,55.1c0-1.1-0.4-2.1-1-2.8c-0.7-0.8-1.6-1.5-2.7-2.2c-1.1-0.7-2.2-1.3-3.4-2c-1.2-0.6-2.4-1.4-3.4-2.2
		c-1.1-0.9-2-1.8-2.7-3c-0.7-1.1-1-2.5-1-4.1c0-1.1,0.2-2.1,0.7-3c0.5-0.9,1.2-1.7,2-2.4c0.8-0.7,1.8-1.2,2.9-1.6s2.3-0.6,3.6-0.6
		c2.2,0,3.9,0.1,5.3,0.4c1.4,0.2,2.7,0.6,4,1c-0.2,1.3-0.3,2.6-0.6,3.9c-0.2,1.3-0.5,2.6-0.9,4h-1.5l-2.3-6.1
		c-0.5-0.2-1-0.3-1.6-0.4c-0.6-0.1-1.2-0.1-1.9-0.1c-0.7,0-1.3,0.1-1.9,0.4c-0.5,0.3-1,0.6-1.4,1c-0.4,0.4-0.7,0.9-0.9,1.4
		c-0.2,0.5-0.3,1-0.3,1.6c0,1.1,0.3,2,1,2.8c0.7,0.8,1.6,1.5,2.7,2.2s2.2,1.3,3.4,1.9c1.2,0.6,2.4,1.4,3.4,2.2
		c1.1,0.8,2,1.7,2.7,2.8c0.7,1.1,1,2.3,1,3.8c0,1.4-0.3,2.6-0.9,3.7c-0.6,1.1-1.4,2-2.4,2.8s-2.2,1.3-3.5,1.8s-2.8,0.6-4.3,0.6
		c-1.7,0-3.3-0.2-4.7-0.4c-1.4-0.3-2.9-0.7-4.5-1.3c0.1-1.4,0.3-2.8,0.5-4.2c0.3-1.3,0.6-2.6,1.1-3.9h1.5l2.6,6.5
		c0.4,0.3,1,0.5,1.6,0.5c0.6,0,1.2,0.1,1.7,0.1c1.8,0,3.2-0.5,4.2-1.4C204.9,57.6,205.4,56.5,205.4,55.1z"/>
</g>
</svg>
