<?xml version="1.0" encoding="utf-8"?>
<svg version="1.1" id="Layer_1" xmlns="http://www.w3.org/2000/svg" xmlns:xlink="http://www.w3.org/1999/xlink" x="0px" y="0px"
	 viewBox="0 0 218 85.8" style="enable-background:new 0 0 218 85.8;" xml:space="preserve">
<style type="text/css">
	.st0{fill:#F37726;}
	.st1{fill:#FFFFFF;}
</style>
<path class="st0" d="M25.4,85.8c-5.7-1.7-9.7-4.1-12.2-7.6c-2.4-3.7-3.6-8.2-3.5-12.7v-9c0-3.3-0.7-5.8-2.3-7.6s-3.7-2.7-6.8-2.7
	v-6.4c3.1,0,5.4-0.9,6.8-2.7c1.4-1.8,2.3-4.3,2.3-7.6v-9c-0.1-4.5,1.1-9,3.6-12.7c2.4-3.5,6.4-6,12.1-7.6l1.8,5.2
	C24.2,6,21.8,8,20.3,10.6c-1.4,3-2.2,6.4-2.1,9.7v9c0.1,2.8-0.6,5.6-1.9,8.1c-1.2,2.3-3.1,4.2-5.5,5.4c2.4,1.2,4.3,3.1,5.6,5.5
	c1.2,2.5,1.9,5.3,1.9,8.1v9C18.2,68.6,19,72,20.4,75c1.4,2.7,3.8,4.7,6.8,5.5L25.4,85.8z"/>
<path class="st0" d="M192.3,85.8l-1.8-5.2c2.9-0.8,5.4-2.8,6.7-5.5c1.5-3,2.2-6.3,2.1-9.7v-8.9c-0.1-2.8,0.6-5.7,2-8.2
	c1.4-2.4,3.5-4.3,6.1-5.4c-2.5-1.1-4.7-2.8-6.1-5.3c-1.4-2.5-2-5.4-2-8.3v-9c0.1-3.4-0.6-6.7-2.1-9.8c-1.4-2.7-3.9-4.6-6.7-5.5
	l1.8-5.2c5.6,1.6,9.7,4.1,12.1,7.6c2.5,3.8,3.8,8.2,3.6,12.7v9c0,3.3,0.7,5.9,2.2,7.7s3.8,2.7,6.9,2.7v6.4c-3.2,0-5.5,0.9-6.9,2.7
	c-1.5,1.8-2.2,4.4-2.2,7.7v8.9c0.1,4.5-1.2,8.9-3.6,12.7C201.9,81.6,197.9,84.1,192.3,85.8z"/>
<g>
	<path class="st1" d="M48.2,30h-5.6v-3.8h13.5v34.9c0,3.8-0.5,6.9-1.5,9.3c-1,2.5-2.2,4.5-3.7,6c-1.4,1.5-2.8,2.7-4.3,3.4
		c-1.4,0.7-2.6,1.2-3.4,1.5l-2-3.2c0.7-0.3,1.4-0.8,2.2-1.4c0.8-0.6,1.6-1.5,2.3-2.7c0.7-1.2,1.3-2.7,1.8-4.5
		c0.5-1.8,0.7-4.1,0.7-6.9V30z M46.5,14c0-1.5,0.5-2.6,1.5-3.5c1-0.9,2.3-1.3,4-1.3c1.7,0,3.1,0.4,4,1.3c1,0.9,1.5,2,1.5,3.5
		c0,1.5-0.5,2.6-1.5,3.5c-1,0.9-2.3,1.3-4,1.3c-1.6,0-2.9-0.4-4-1.3C47,16.6,46.5,15.4,46.5,14z"/>
	<path class="st1" d="M65.1,26.2h6.7v-9.4h7.9v9.4h12.5V31H79.8v22c0,3.2,0.4,5.4,1.2,6.7c0.8,1.3,2.1,2,3.9,2c1.6,0,2.9-0.3,4-0.8
		c1.1-0.6,2.2-1.2,3.1-1.8l1.9,2.9c-0.5,0.5-1.1,0.9-1.8,1.5c-0.8,0.5-1.7,1-2.7,1.5c-1,0.5-2.1,0.8-3.4,1.1
		c-1.2,0.3-2.5,0.5-3.8,0.5c-3.4,0-5.9-0.9-7.7-2.6c-1.8-1.7-2.7-4.6-2.7-8.6V31h-6.7V26.2z"/>
	<path class="st1" d="M133.1,60.6c-1.3,1.9-3.2,3.3-5.6,4.4c-2.4,1.1-5.2,1.6-8.4,1.6c-3.3,0-6.3-0.5-8.8-1.5c-2.5-1-4.7-2.4-6.4-4.1
		c-1.7-1.8-3-3.9-3.9-6.5c-0.9-2.5-1.3-5.4-1.3-8.5c0-6.7,1.7-11.8,5.1-15.3c3.4-3.5,8.1-5.2,14.2-5.2c2,0,4,0.3,5.9,0.8
		c1.9,0.5,3.7,1.3,5.2,2.5c1.5,1.2,2.7,2.7,3.7,4.6c0.9,1.9,1.4,4.3,1.4,7.1c0,0.9-0.1,1.8-0.2,2.7c-0.1,1-0.3,2-0.5,3h-26.5
		c0,2.2,0.3,4.2,0.9,6c0.6,1.8,1.5,3.4,2.7,4.7c1.2,1.3,2.7,2.3,4.4,3.1c1.8,0.7,3.9,1.1,6.3,1.1c2,0,3.8-0.3,5.5-1
		c1.7-0.7,3.1-1.4,4.1-2.3L133.1,60.6z M117.6,29c-1.6,0-2.9,0.2-4.1,0.7c-1.2,0.5-2.2,1.2-3.1,2.3c-0.9,1.1-1.5,2.5-2,4.2
		c-0.5,1.7-0.8,3.9-1,6.4h18.2c0.1-0.5,0.1-0.9,0.1-1.4c0-0.5,0-0.9,0-1.3c0-3.3-0.7-6-2-7.9C122.5,30,120.4,29,117.6,29z"/>
	<path class="st1" d="M163.5,44.6L176.8,62h4.4v3.8h-18.4V62h5.1l-9.3-13.1L149.3,62h4.1v3.8h-14.6V62h4.8l12.6-15.8L143.6,30h-4.1v-3.8h18.1V30
		h-4.9l8.7,12l8.4-12h-4.1v-3.8h14.2V30h-4.7L163.5,44.6z"/>
</g>
</svg>
