<?xml version="1.0" encoding="utf-8"?>
<!-- Generator: Adobe Illustrator 26.0.3, SVG Export Plug-In . SVG Version: 6.00 Build 0)  -->
<svg version="1.1" id="Layer_1" xmlns="http://www.w3.org/2000/svg" xmlns:xlink="http://www.w3.org/1999/xlink" x="0px" y="0px"
	 viewBox="0 0 297.6 138.9" style="enable-background:new 0 0 297.6 138.9;" xml:space="preserve">
<style type="text/css">
	.st0{fill:#616161;}
	.st1{fill:#F37726;}
	.st2{fill:#111111;}
</style>
<path class="st0" d="M36.8,80.6v-3.7l4.8-0.8V42.5l-4.8-0.8V38h12.5L63,70.4h0.2L76.5,38h12.9v3.7l-4.8,0.8v33.6l4.8,0.8v3.7H74
	v-3.7l5-0.8V45.8h-0.1L65.1,79.1h-3.8L46.9,45.9h-0.1L47,63.7v12.4l5.2,0.8v3.7H36.8z M101.1,93.4c-0.6,0-1.2-0.1-1.8-0.2
	c-0.7-0.1-1.3-0.2-1.7-0.3l0.6-4.5c0.5,0.1,0.9,0.1,1.4,0.1c0.6,0,1,0,1.2,0c1.2,0,2.3-0.5,3-1.4c0.9-1.2,1.6-2.5,2.2-3.8l1.4-3.3
	L96.2,53.1l-3.4-0.5v-3.7h13.3v3.7l-3.8,0.6l6.2,15.8l1.5,4.1h0.2l7.3-20l-4-0.6v-3.7h13v3.7l-3.3,0.5l-12.5,32.4
	c-0.5,1.4-1.3,2.8-2.1,4.1c-0.8,1.2-1.8,2.1-3,2.8C104.2,93.1,102.7,93.5,101.1,93.4z M144.8,81.2c-2.5,0-5.1-0.4-7.5-1.1
	c-2.5-0.8-4.8-2-6.9-3.5v-9.1h4.5l1,6.7c1.3,0.8,2.7,1.4,4.1,1.8c1.6,0.4,3.2,0.7,4.8,0.6c1.7,0.1,3.4-0.2,5-0.9
	c1.3-0.5,2.3-1.4,3.1-2.5c1.4-2.2,1.5-4.9,0.2-7.2c-0.8-1.1-1.9-2-3.1-2.6c-1.9-0.9-3.8-1.6-5.9-2c-2.6-0.6-5.1-1.5-7.4-2.7
	c-1.9-1-3.4-2.4-4.6-4.2c-1.1-1.7-1.6-3.6-1.6-5.6c0-2.1,0.6-4.2,1.8-6s2.9-3.2,4.9-4.2c2.3-1.1,4.8-1.6,7.4-1.5
	c2.7-0.1,5.4,0.4,7.9,1.4c2.1,0.8,4,1.9,5.7,3.3v8.5h-4.4l-1-6.1c-1-0.8-2.1-1.3-3.3-1.8c-1.6-0.5-3.2-0.7-4.9-0.7
	c-1.5,0-3,0.3-4.3,0.9c-1.2,0.5-2.2,1.4-2.9,2.4c-0.7,1.1-1,2.4-1,3.6s0.3,2.3,0.9,3.2c0.8,1.1,1.9,1.9,3.1,2.4
	c1.9,0.8,3.8,1.5,5.8,1.9c4.4,1.2,7.8,2.8,10.1,5c2.3,2.1,3.5,5,3.5,8.1c0,2.2-0.6,4.3-1.9,6.1c-1.3,1.8-3.1,3.3-5.2,4.1
	C150.2,80.8,147.5,81.3,144.8,81.2z M175.3,80.6V77l4.8-0.8V42.3h-9.7l-0.8,5.9h-4.3V38h35.4v10.2h-4.3l-0.9-5.9h-9.7v33.8l4.8,0.8
	v3.7H175.3z"/>
<path class="st1" d="M33.8,100.2c-5.5-1.6-9.4-4-11.8-7.4c-2.3-3.6-3.5-7.9-3.4-12.3v-8.7c0-3.2-0.7-5.6-2.2-7.4s-3.6-2.6-6.6-2.6
	v-6.2c3,0,5.2-0.9,6.6-2.6c1.4-1.7,2.2-4.2,2.2-7.4v-8.7c-0.1-4.4,1.1-8.7,3.5-12.3c2.3-3.4,6.2-5.8,11.7-7.4l1.7,5
	c-2.8,0.8-5.2,2.7-6.6,5.3c-1.4,2.9-2.1,6.2-2,9.4v8.7c0.1,2.7-0.6,5.4-1.8,7.8c-1.2,2.2-3,4.1-5.3,5.2c2.3,1.2,4.2,3,5.4,5.3
	c1.2,2.4,1.8,5.1,1.8,7.8v8.7c-0.1,3.2,0.6,6.5,2,9.4c1.4,2.6,3.7,4.5,6.6,5.3L33.8,100.2z"/>
<path class="st1" d="M201.8,99.7l-1.7-4.9c2.8-0.8,5.1-2.7,6.4-5.2c1.4-2.9,2.1-6,2-9.2v-8.5c-0.1-2.7,0.6-5.4,1.9-7.8
	c1.3-2.3,3.3-4.1,5.8-5.1c-2.4-1-4.5-2.7-5.8-5c-1.3-2.4-1.9-5.1-1.9-7.9v-8.6c0.1-3.2-0.6-6.4-2-9.3c-1.3-2.6-3.7-4.4-6.4-5.2
	l1.7-4.9c5.3,1.5,9.2,3.9,11.5,7.2c2.4,3.6,3.6,7.8,3.4,12.1V46c0,3.1,0.7,5.6,2.1,7.3c1.4,1.7,3.6,2.6,6.6,2.6V62
	c-3,0-5.2,0.9-6.6,2.6c-1.4,1.7-2.1,4.2-2.1,7.3v8.5c0.1,4.3-1.1,8.5-3.4,12.1C211,95.7,207.1,98.1,201.8,99.7z"/>
<path class="st0" d="M22.3,123l-4.2-11H18c0.1,0.9,0.1,1.9,0.1,3.1v7.9h-1.3v-12.3h2.1l3.9,10.2h0.1l3.9-10.2H29v12.4h-1.4v-8
	c0-0.9,0-1.9,0.1-3h-0.1l-4.2,11L22.3,123z M37.9,123l-0.3-1.3h-0.1c-0.4,0.5-0.8,0.9-1.4,1.2c-0.5,0.2-1.1,0.3-1.7,0.3
	c-0.8,0-1.5-0.2-2.1-0.7c-0.5-0.5-0.8-1.3-0.8-2c0-1.9,1.5-2.9,4.5-3h1.6v-0.6c0-0.6-0.1-1.1-0.5-1.6c-0.4-0.4-0.9-0.6-1.5-0.5
	c-0.9,0-1.8,0.3-2.6,0.7l-0.4-1.1c1-0.5,2-0.8,3.1-0.8c0.9-0.1,1.8,0.2,2.5,0.7c0.6,0.6,0.9,1.5,0.8,2.4v6.3H37.9z M34.7,122
	c0.8,0,1.5-0.2,2.1-0.7c0.5-0.5,0.8-1.3,0.8-2v-0.8l-1.4,0.1c-0.8,0-1.7,0.2-2.4,0.5c-0.5,0.3-0.8,0.9-0.7,1.4
	c0,0.4,0.1,0.9,0.5,1.2C33.8,121.9,34.3,122.1,34.7,122L34.7,122z M46.1,113.6c0.4,0,0.7,0,1.1,0.1L47,115c-0.3-0.1-0.7-0.1-1-0.1
	c-0.8,0-1.5,0.3-1.9,0.9c-0.5,0.6-0.8,1.4-0.8,2.3v5h-1.5v-9.3H43l0.2,1.7h0.1c0.3-0.6,0.7-1,1.2-1.4
	C44.9,113.8,45.5,113.6,46.1,113.6L46.1,113.6z M50.3,118.3c0.3-0.5,0.7-0.9,1.1-1.3l3-3.2h1.7l-3.8,3.9l4,5.3h-1.7l-3.3-4.4
	l-1.1,0.9v3.5h-1.4v-13.1h1.4v7C50.3,117.2,50.3,117.7,50.3,118.3L50.3,118.3z M61.9,123.2c-1.2,0.1-2.4-0.4-3.2-1.2
	c-0.8-1-1.3-2.2-1.2-3.5c-0.1-1.3,0.3-2.5,1.1-3.6c0.7-0.9,1.8-1.4,3-1.3c1,0,2,0.4,2.8,1.1c0.7,0.8,1.1,1.9,1,3v0.9H59
	c0,0.9,0.3,1.8,0.8,2.5c0.6,0.6,1.4,0.9,2.2,0.8c1,0,2.1-0.2,3-0.6v1.2c-0.5,0.2-0.9,0.4-1.4,0.5C63,123.1,62.5,123.2,61.9,123.2z
	 M61.6,114.8c-0.7,0-1.3,0.2-1.8,0.7c-0.5,0.6-0.7,1.3-0.8,2h4.8c0-0.7-0.2-1.4-0.6-2C62.8,115,62.2,114.7,61.6,114.8L61.6,114.8z
	 M74,121.8L74,121.8c-0.7,1-1.8,1.5-3,1.4c-1.1,0.1-2.1-0.4-2.8-1.2c-0.7-1-1.1-2.3-1-3.6c-0.1-1.3,0.3-2.5,1-3.6
	c0.7-0.8,1.7-1.3,2.8-1.3c1.1-0.1,2.2,0.4,2.9,1.4H74v-0.7v-0.7v-3.7h1.4V123h-1.2L74,121.8z M71.2,122c0.8,0.1,1.6-0.2,2.1-0.8
	c0.5-0.7,0.7-1.6,0.6-2.5v-0.3c0.1-1-0.1-2-0.7-2.8c-0.5-0.6-1.3-0.9-2.1-0.8c-0.8,0-1.5,0.4-1.9,1c-0.5,0.8-0.7,1.8-0.7,2.7
	c-0.1,0.9,0.2,1.9,0.7,2.7C69.8,121.7,70.5,122.1,71.2,122L71.2,122z M79.8,123h-1.4v-13.1h1.4V123z M81.3,113.7h1.5l2,5.3
	c0.3,0.8,0.6,1.7,0.8,2.6h0.1c0.1-0.3,0.2-0.8,0.4-1.5c0.2-0.7,1-2.8,2.3-6.4h1.5l-4,10.5c-0.3,0.8-0.7,1.6-1.4,2.2
	c-0.5,0.4-1.2,0.7-1.9,0.7c-0.4,0-0.8,0-1.3-0.1v-1.1c0.3,0.1,0.7,0.1,1,0.1c1,0,1.8-0.7,2.1-1.6l0.5-1.3L81.3,113.7z M103.2,119.7
	c0,1-0.4,2-1.2,2.6c-0.9,0.6-2.1,0.9-3.2,0.9c-1.2,0.1-2.3-0.1-3.4-0.6v-1.4c0.5,0.2,1.1,0.4,1.7,0.5s1.2,0.2,1.8,0.2
	c0.8,0.1,1.5-0.1,2.2-0.6c0.5-0.3,0.8-0.9,0.7-1.5c0-0.4-0.1-0.7-0.3-1c-0.2-0.3-0.5-0.6-0.9-0.8c-0.6-0.3-1.2-0.6-1.8-0.8
	c-0.9-0.3-1.8-0.8-2.5-1.5c-0.5-0.6-0.8-1.4-0.7-2.2c0-0.9,0.4-1.7,1.1-2.3c0.8-0.6,1.8-0.9,2.8-0.8c1.2,0,2.3,0.2,3.4,0.7l-0.5,1.2
	c-0.9-0.4-2-0.6-3-0.6c-0.6,0-1.3,0.1-1.8,0.5c-0.4,0.3-0.7,0.8-0.6,1.4c0,0.4,0.1,0.7,0.2,1.1c0.2,0.3,0.5,0.6,0.8,0.8
	c0.6,0.3,1.1,0.5,1.7,0.7c1,0.3,1.9,0.8,2.7,1.5C103,118.3,103.2,119,103.2,119.7z M108.5,122.1c0.2,0,0.5,0,0.7,0s0.4-0.1,0.6-0.1
	v1.1c-0.2,0.1-0.4,0.1-0.7,0.2c-0.3,0-0.5,0.1-0.8,0.1c-1.8,0-2.7-1-2.7-2.8V115h-1.3v-0.8l1.3-0.6l0.6-2h0.8v2.2h2.7v1.1H107v5.5
	c0,0.5,0.1,0.9,0.4,1.3C107.7,121.9,108.1,122.1,108.5,122.1z M115.8,113.6c0.4,0,0.7,0,1.1,0.1l-0.1,1.3c-0.3-0.1-0.7-0.1-1-0.1
	c-0.7,0-1.5,0.3-1.9,0.9c-0.5,0.6-0.8,1.4-0.8,2.3v5h-1.5v-9.3h1.2l0.2,1.7h0.1c0.3-0.6,0.7-1,1.2-1.4
	C114.7,113.8,115.3,113.6,115.8,113.6z M120,113.8v6c0,0.6,0.1,1.2,0.5,1.7c0.4,0.4,1,0.6,1.6,0.6c0.8,0.1,1.6-0.2,2.1-0.8
	c0.5-0.8,0.8-1.7,0.7-2.6v-4.8h1.4v9.3h-1.2l-0.2-1.2h-0.1c-0.3,0.5-0.7,0.8-1.2,1.1c-0.5,0.2-1.1,0.4-1.8,0.4
	c-0.9,0.1-1.8-0.2-2.5-0.8c-0.6-0.7-0.9-1.6-0.8-2.6V114h1.5V113.8z M133,123.2c-1.2,0.1-2.3-0.4-3.1-1.2c-0.8-1-1.2-2.2-1.1-3.5
	c-0.1-1.3,0.3-2.6,1.1-3.6c0.8-0.9,2-1.3,3.2-1.3c0.5,0,0.9,0,1.3,0.1c0.3,0.1,0.7,0.2,1,0.3l-0.4,1.2c-0.3-0.1-0.7-0.2-1-0.3
	c-0.3-0.1-0.7-0.1-1-0.1c-1.9,0-2.8,1.2-2.8,3.6c-0.1,0.9,0.2,1.8,0.7,2.6c0.5,0.6,1.2,0.9,2,0.9s1.6-0.2,2.4-0.5v1.2
	C134.5,123.1,133.8,123.2,133,123.2L133,123.2z M140.5,122.1c0.2,0,0.5,0,0.7,0s0.4-0.1,0.6-0.1v1.1c-0.2,0.1-0.4,0.1-0.7,0.2
	c-0.3,0-0.5,0.1-0.8,0.1c-1.8,0-2.7-1-2.7-2.8V115h-1.3v-0.8l1.3-0.6l0.6-2h0.8v2.2h2.8v1.1h-2.7v5.5c0,0.5,0.1,0.9,0.4,1.3
	C139.8,121.9,140.2,122.1,140.5,122.1L140.5,122.1z M145,113.8v6c0,0.6,0.1,1.2,0.5,1.7c0.4,0.4,1,0.6,1.6,0.6
	c0.8,0.1,1.6-0.2,2.1-0.8c0.5-0.8,0.7-1.7,0.7-2.6v-4.8h1.4v9.3h-1.1L150,122h-0.2c-0.3,0.5-0.7,0.8-1.2,1.1
	c-0.5,0.2-1.1,0.4-1.8,0.4c-0.9,0.1-1.8-0.2-2.5-0.8c-0.6-0.7-0.9-1.6-0.9-2.6V114h1.6V113.8z M158.5,113.6c0.4,0,0.7,0,1.1,0.1
	l-0.2,1.3c-0.3-0.1-0.7-0.1-1-0.1c-0.7,0-1.5,0.3-1.9,0.9c-0.5,0.6-0.8,1.4-0.8,2.3v5h-1.4v-9.3h1.2l0.2,1.7h0.1
	c0.3-0.6,0.7-1,1.2-1.4C157.4,113.8,158,113.6,158.5,113.6L158.5,113.6z M165.3,123.2c-1.2,0.1-2.4-0.4-3.2-1.2
	c-0.8-1-1.3-2.2-1.2-3.5c-0.1-1.3,0.3-2.5,1.1-3.6c0.7-0.9,1.8-1.4,3-1.3c1,0,2,0.4,2.8,1.1c0.7,0.8,1.1,1.9,1,3v0.9h-6.4
	c0,0.9,0.3,1.8,0.8,2.5c0.6,0.6,1.4,0.9,2.2,0.8c1,0,2.1-0.2,3-0.6v1.2c-0.5,0.2-0.9,0.4-1.4,0.5
	C166.4,123.2,165.8,123.2,165.3,123.2L165.3,123.2z M164.9,114.8c-0.7,0-1.3,0.2-1.8,0.7c-0.5,0.6-0.7,1.3-0.8,2h4.8
	c0-0.7-0.2-1.4-0.6-2C166.2,115,165.6,114.8,164.9,114.8L164.9,114.8z M177.4,121.8L177.4,121.8c-0.7,1-1.8,1.5-3,1.4
	c-1.1,0.1-2.1-0.4-2.8-1.2c-0.7-1-1.1-2.3-1-3.6c-0.1-1.3,0.3-2.5,1-3.6c0.7-0.8,1.7-1.3,2.8-1.3c1.1-0.1,2.2,0.4,2.9,1.4h0.1v-0.7
	l-0.1-0.7v-3.8h1.5v13.2h-1.1L177.4,121.8z M174.6,122c0.8,0.1,1.6-0.2,2.1-0.8c0.5-0.7,0.7-1.6,0.6-2.5v-0.3c0.1-1-0.1-2-0.6-2.8
	c-0.5-0.6-1.3-0.9-2.1-0.8c-0.8,0-1.5,0.4-1.9,1c-0.5,0.8-0.7,1.8-0.6,2.7c-0.1,0.9,0.2,1.9,0.6,2.7
	C173.1,121.8,173.8,122.1,174.6,122L174.6,122z M190.2,123h-1.4v-11h-3.9v-1.3h9.3v1.3h-3.9L190.2,123z M199.7,123.2
	c-1.2,0.1-2.4-0.4-3.2-1.2c-0.8-1-1.3-2.2-1.2-3.5c-0.1-1.3,0.3-2.5,1.1-3.6c0.7-0.9,1.8-1.4,3-1.3c1,0,2,0.4,2.8,1.1
	c0.7,0.8,1,1.9,1,3v0.9h-6.4c0,0.9,0.3,1.8,0.8,2.5c0.6,0.6,1.4,0.9,2.2,0.8c1,0,2.1-0.2,3-0.6v1.2c-0.5,0.2-0.9,0.4-1.4,0.5
	C200.9,123.2,200.3,123.2,199.7,123.2L199.7,123.2z M199.3,114.8c-0.7,0-1.3,0.2-1.8,0.7c-0.5,0.6-0.7,1.3-0.8,2h4.8
	c0-0.7-0.2-1.4-0.6-2C200.6,115,200,114.8,199.3,114.8L199.3,114.8z M207.7,118.3l-3.2-4.5h1.6l2.4,3.5l2.4-3.5h1.6l-3.2,4.5
	l3.4,4.8h-1.6l-2.6-3.8l-2.6,3.8h-1.6L207.7,118.3z M217.6,122c0.2,0,0.5,0,0.7,0s0.4-0.1,0.6-0.1v1.1c-0.2,0.1-0.4,0.1-0.7,0.2
	c-0.3,0-0.5,0.1-0.8,0.1c-1.8,0-2.7-1-2.7-2.8V115h-1.3v-0.8l1.3-0.6l0.6-2h0.8v2.2h2.7v1.1h-2.7v5.5c0,0.5,0.1,0.9,0.4,1.3
	C216.8,121.9,217.2,122.1,217.6,122L217.6,122z"/>
<rect x="240.3" class="st2" width="57.3" height="138.9"/>
<g>
	<path class="st1" d="M281.9,108.3c1.3-2,2.3-5,2.3-8.2c0-4.7-2.5-7.4-6-7.4c-3.3,0-5.2,1.9-7,6.6c-2,5.7-5,9.3-10,9.3
		c-5.5,0-9.6-4.5-9.6-11.4c0-3.6,0.8-6.2,1.7-7.8l3.7,1.3c-0.6,1.2-1.7,3.5-1.7,6.7c0,4.8,2.9,6.6,5.3,6.6c3.3,0,4.9-2.1,6.8-7
		c2.3-6,5.2-9,10.3-9c5.4,0,10.1,4,10.1,12.3c0,3.4-1,7.1-2.2,9L281.9,108.3z"/>
	<path class="st1" d="M287.4,74.2l-35.2,11.5v-4.9l17.4-5.5c4.8-1.5,9-2.8,13.2-3.8v-0.1c-4.1-1-8.5-2.5-13.1-4l-17.4-6v-4.9
		l35.2,12.6V74.2z"/>
	<path class="st1" d="M285.9,25.9c0.7,2,1.9,6.1,1.9,10.8c0,5.3-1.4,9.7-4.7,13.2c-2.9,3-7.6,4.9-13.1,4.9
		c-10.5-0.1-18.2-7.3-18.2-19.1c0-4.1,0.9-7.3,1.6-8.8l3.7,1.1c-0.8,1.9-1.5,4.2-1.5,7.8c0,8.6,5.3,14.2,14.2,14.2
		c8.9,0,14.2-5.4,14.2-13.6c0-3-0.4-5-0.9-6.1h-10.5v7.2h-3.7V25.9H285.9z"/>
</g>
</svg>
