<?xml version="1.0" encoding="utf-8"?>
<!-- Generator: Adobe Illustrator 26.0.3, SVG Export Plug-In . SVG Version: 6.00 Build 0)  -->
<svg version="1.1" id="Layer_1" xmlns="http://www.w3.org/2000/svg" xmlns:xlink="http://www.w3.org/1999/xlink" x="0px" y="0px"
	 viewBox="0 0 236.1 110" style="enable-background:new 0 0 236.1 110;" xml:space="preserve">
<style type="text/css">
	.st0{fill:#F37726;}
	.st1{fill:#616161;}
	.st2{enable-background:new    ;}
</style>
<path class="st0" d="M24,83c-5.5-1.6-9.4-4-11.8-7.4C9.9,72,8.7,67.7,8.8,63.3v-8.7c0-3.2-0.7-5.6-2.2-7.4S3,44.6,0,44.6v-6.2
	c3,0,5.2-0.9,6.6-2.6c1.4-1.7,2.2-4.2,2.2-7.4v-8.7C8.7,15.3,9.9,11,12.3,7.4C14.6,4,18.5,1.6,24,0l1.7,5c-2.8,0.8-5.2,2.7-6.6,5.3
	c-1.4,2.9-2.1,6.2-2,9.4v8.7c0.1,2.7-0.6,5.4-1.8,7.8c-1.2,2.2-3,4.1-5.3,5.2c2.3,1.2,4.2,3,5.4,5.3c1.2,2.4,1.8,5.1,1.8,7.8v8.7
	c-0.1,3.2,0.6,6.5,2,9.4c1.4,2.6,3.7,4.5,6.6,5.3L24,83z"/>
<path class="st0" d="M212.5,82.5l-1.7-4.9c2.8-0.8,5.1-2.7,6.4-5.2c1.4-2.9,2.1-6,2-9.2v-8.5c-0.1-2.7,0.6-5.4,1.9-7.8
	c1.3-2.3,3.3-4.1,5.8-5.1c-2.4-1-4.5-2.7-5.8-5c-1.3-2.4-1.9-5.1-1.9-7.9v-8.6c0.1-3.2-0.6-6.4-2-9.3c-1.3-2.6-3.7-4.4-6.4-5.2
	l1.7-4.9c5.3,1.5,9.2,3.9,11.5,7.2c2.4,3.6,3.6,7.8,3.4,12.1v8.6c0,3.1,0.7,5.6,2.1,7.3c1.4,1.7,3.6,2.6,6.6,2.6v6.1
	c-3,0-5.2,0.9-6.6,2.6c-1.4,1.7-2.1,4.2-2.1,7.3v8.5c0.1,4.3-1.1,8.5-3.4,12.1C221.6,78.5,217.8,80.9,212.5,82.5z"/>
<path class="st1" d="M24.2,103.8l-4.2-11h-0.1c0.1,0.9,0.1,1.9,0.1,3.1v7.9h-1.3V91.5h2.1l3.9,10.2h0.1l3.9-10.2h2.2v12.4h-1.4v-8
	c0-0.9,0-1.9,0.1-3h-0.1l-4.2,11L24.2,103.8z M39.8,103.8l-0.3-1.3h-0.1c-0.4,0.5-0.8,0.9-1.4,1.2c-0.5,0.2-1.1,0.3-1.7,0.3
	c-0.8,0-1.5-0.2-2.2-0.7c-0.5-0.5-0.8-1.3-0.8-2c0-1.9,1.5-2.9,4.5-3h1.6v-0.6c0-0.6-0.1-1.1-0.5-1.6c-0.4-0.4-0.9-0.6-1.5-0.5
	c-0.9,0-1.8,0.3-2.6,0.7l-0.4-1.1c1-0.5,2-0.8,3.1-0.8c0.9-0.1,1.8,0.2,2.5,0.7c0.6,0.6,0.9,1.5,0.8,2.4v6.3H39.8z M36.6,102.8
	c0.8,0,1.5-0.2,2.1-0.7c0.5-0.5,0.8-1.3,0.8-2v-0.8H38c-0.8,0-1.7,0.2-2.4,0.5c-0.5,0.3-0.8,0.9-0.7,1.4c0,0.4,0.1,0.9,0.5,1.2
	C35.7,102.7,36.2,102.9,36.6,102.8L36.6,102.8z M48,94.4c0.4,0,0.7,0,1.1,0.1l-0.2,1.3c-0.3-0.1-0.7-0.1-1-0.1
	c-0.8,0-1.5,0.3-1.9,0.9c-0.5,0.6-0.8,1.4-0.8,2.3v5h-1.4v-9.3H45l0.2,1.7h0.1c0.3-0.6,0.7-1,1.2-1.4C46.8,94.6,47.4,94.4,48,94.4
	L48,94.4z M52.2,99.1c0.3-0.5,0.7-0.9,1.1-1.3l3-3.2H58l-3.8,3.9l4,5.3h-1.7l-3.3-4.4l-1.1,0.9v3.5h-1.4V90.7h1.4v7
	C52.2,98,52.2,98.5,52.2,99.1L52.2,99.1z M63.8,104c-1.2,0.1-2.4-0.4-3.2-1.2c-0.8-1-1.3-2.2-1.2-3.5c-0.1-1.3,0.3-2.5,1.1-3.6
	c0.7-0.9,1.8-1.4,3-1.3c1,0,2,0.4,2.7,1.1c0.7,0.8,1.1,1.9,1,3v0.9h-6.4c0,0.9,0.3,1.8,0.8,2.5c0.6,0.6,1.4,0.9,2.2,0.8
	c1,0,2.1-0.2,3-0.6v1.2c-0.5,0.2-0.9,0.4-1.4,0.5C64.9,103.9,64.4,104,63.8,104z M63.5,95.6c-0.7,0-1.3,0.2-1.8,0.7
	c-0.5,0.6-0.7,1.3-0.8,2h4.8c0-0.7-0.2-1.4-0.6-2C64.7,95.8,64.1,95.5,63.5,95.6L63.5,95.6z M75.9,102.6L75.9,102.6
	c-0.7,1-1.8,1.5-3,1.4c-1.1,0.1-2.1-0.4-2.8-1.2c-0.7-1-1.1-2.3-1-3.6c-0.1-1.3,0.3-2.5,1-3.6c0.7-0.8,1.7-1.3,2.8-1.3
	c1.1-0.1,2.2,0.4,2.9,1.4H76V95v-0.7v-3.7h1.4v13.2h-1.2L75.9,102.6z M73.1,102.8c0.8,0.1,1.6-0.2,2.1-0.8c0.5-0.7,0.7-1.6,0.6-2.5
	v-0.3c0.1-1-0.1-2-0.7-2.8c-0.5-0.6-1.3-0.9-2.1-0.8c-0.8,0-1.5,0.4-1.9,1c-0.5,0.8-0.7,1.8-0.7,2.7c-0.1,0.9,0.2,1.9,0.7,2.7
	C71.7,102.5,72.4,102.9,73.1,102.8L73.1,102.8z M81.7,103.8h-1.4V90.7h1.4V103.8z M83.2,94.5h1.5l2,5.3c0.3,0.8,0.6,1.7,0.8,2.6h0.1
	c0.1-0.3,0.2-0.8,0.4-1.5c0.2-0.7,1-2.8,2.3-6.4h1.5l-4,10.5c-0.3,0.8-0.7,1.6-1.4,2.2c-0.5,0.4-1.2,0.7-1.9,0.7
	c-0.4,0-0.8,0-1.3-0.1v-1.1c0.3,0.1,0.7,0.1,1,0.1c1,0,1.8-0.7,2.1-1.6l0.5-1.3L83.2,94.5z M105.1,100.5c0,1-0.4,2-1.2,2.6
	c-0.9,0.6-2.1,0.9-3.2,0.9c-1.2,0.1-2.3-0.1-3.4-0.6V102c0.5,0.2,1.1,0.4,1.7,0.5s1.2,0.2,1.8,0.2c0.8,0.1,1.5-0.1,2.2-0.6
	c0.5-0.3,0.8-0.9,0.7-1.5c0-0.4-0.1-0.7-0.3-1c-0.2-0.3-0.5-0.6-0.9-0.8c-0.6-0.3-1.2-0.6-1.8-0.8c-0.9-0.3-1.8-0.8-2.5-1.5
	c-0.5-0.6-0.8-1.4-0.7-2.2c0-0.9,0.4-1.7,1.1-2.3c0.8-0.6,1.8-0.9,2.8-0.8c1.2,0,2.3,0.2,3.4,0.7l-0.5,1.2c-0.9-0.4-2-0.6-3-0.6
	c-0.6,0-1.3,0.1-1.8,0.5c-0.4,0.3-0.7,0.8-0.6,1.4c0,0.4,0.1,0.7,0.2,1.1c0.2,0.3,0.5,0.6,0.8,0.8c0.6,0.3,1.1,0.5,1.7,0.7
	c1,0.3,1.9,0.8,2.7,1.5C104.9,99.1,105.1,99.8,105.1,100.5z M110.4,102.9c0.2,0,0.5,0,0.7,0s0.4-0.1,0.6-0.1v1.1
	c-0.2,0.1-0.4,0.1-0.7,0.2c-0.3,0-0.5,0.1-0.8,0.1c-1.8,0-2.7-1-2.7-2.8v-5.6h-1.3V95l1.3-0.6l0.6-2h0.8v2.2h2.7v1.1h-2.7v5.5
	c0,0.5,0.1,0.9,0.4,1.3C109.6,102.7,110,102.9,110.4,102.9z M117.7,94.4c0.4,0,0.7,0,1.1,0.1l-0.1,1.3c-0.3-0.1-0.7-0.1-1-0.1
	c-0.7,0-1.5,0.3-1.9,0.9c-0.5,0.6-0.8,1.4-0.8,2.3v5h-1.5v-9.3h1.2l0.2,1.7h0.1c0.3-0.6,0.7-1,1.2-1.4
	C116.6,94.6,117.2,94.4,117.7,94.4z M121.9,94.6v6c0,0.6,0.1,1.2,0.5,1.7c0.4,0.4,1,0.6,1.6,0.6c0.8,0.1,1.6-0.2,2.1-0.8
	c0.5-0.8,0.8-1.7,0.7-2.6v-4.8h1.4v9.3H127l-0.2-1.2h-0.1c-0.3,0.5-0.7,0.8-1.2,1.1c-0.5,0.2-1.1,0.4-1.8,0.4
	c-0.9,0.1-1.8-0.2-2.5-0.8c-0.6-0.7-0.9-1.6-0.8-2.6v-6.1h1.5V94.6z M134.9,104c-1.2,0.1-2.3-0.4-3.1-1.2c-0.8-1-1.2-2.2-1.1-3.5
	c-0.1-1.3,0.3-2.6,1.1-3.6c0.8-0.9,2-1.3,3.2-1.3c0.5,0,0.9,0,1.3,0.1c0.3,0.1,0.7,0.2,1,0.3l-0.4,1.2c-0.3-0.1-0.7-0.2-1-0.3
	c-0.3-0.1-0.7-0.1-1-0.1c-1.9,0-2.8,1.2-2.8,3.6c-0.1,0.9,0.2,1.8,0.7,2.6c0.5,0.6,1.2,0.9,2,0.9s1.6-0.2,2.4-0.5v1.2
	C136.4,103.9,135.7,104,134.9,104L134.9,104z M142.4,102.9c0.2,0,0.5,0,0.7,0s0.4-0.1,0.6-0.1v1.1c-0.2,0.1-0.4,0.1-0.7,0.2
	c-0.3,0-0.5,0.1-0.8,0.1c-1.8,0-2.7-1-2.7-2.8v-5.6h-1.3V95l1.3-0.6l0.6-2h0.8v2.2h2.8v1.1H141v5.5c0,0.5,0.1,0.9,0.4,1.3
	C141.7,102.7,142.1,102.9,142.4,102.9L142.4,102.9z M146.9,94.6v6c0,0.6,0.1,1.2,0.5,1.7c0.4,0.4,1,0.6,1.6,0.6
	c0.8,0.1,1.6-0.2,2.1-0.8c0.5-0.8,0.7-1.7,0.7-2.6v-4.8h1.4v9.3H152l-0.2-1.2h-0.1c-0.3,0.5-0.7,0.8-1.2,1.1
	c-0.5,0.2-1.1,0.4-1.8,0.4c-0.9,0.1-1.8-0.2-2.5-0.8c-0.6-0.7-0.9-1.6-0.9-2.6v-6.1h1.6V94.6z M160.4,94.4c0.4,0,0.7,0,1.1,0.1
	l-0.2,1.3c-0.3-0.1-0.7-0.1-1-0.1c-0.7,0-1.5,0.3-1.9,0.9c-0.5,0.6-0.8,1.4-0.8,2.3v5h-1.4v-9.3h1.2l0.2,1.7h0.1
	c0.3-0.6,0.7-1,1.2-1.4C159.3,94.6,159.9,94.4,160.4,94.4L160.4,94.4z M167.2,104c-1.2,0.1-2.4-0.4-3.2-1.2c-0.8-1-1.3-2.2-1.2-3.5
	c-0.1-1.3,0.3-2.5,1.1-3.6c0.7-0.9,1.8-1.4,3-1.3c1,0,2,0.4,2.8,1.1c0.7,0.8,1.1,1.9,1,3v0.9h-6.4c0,0.9,0.3,1.8,0.8,2.5
	c0.6,0.6,1.4,0.9,2.2,0.8c1,0,2.1-0.2,3-0.6v1.2c-0.5,0.2-0.9,0.4-1.4,0.5C168.3,104,167.7,104,167.2,104L167.2,104z M166.8,95.6
	c-0.7,0-1.3,0.2-1.8,0.7c-0.5,0.6-0.7,1.3-0.8,2h4.8c0-0.7-0.2-1.4-0.6-2C168.1,95.8,167.5,95.6,166.8,95.6L166.8,95.6z
	 M179.3,102.6L179.3,102.6c-0.7,1-1.8,1.5-3,1.4c-1.1,0.1-2.1-0.4-2.8-1.2c-0.7-1-1.1-2.3-1-3.6c-0.1-1.3,0.3-2.5,1-3.6
	c0.7-0.8,1.7-1.3,2.8-1.3c1.1-0.1,2.2,0.4,2.9,1.4h0.1V95l-0.1-0.7v-3.8h1.5v13.2h-1.1L179.3,102.6z M176.5,102.8
	c0.8,0.1,1.6-0.2,2.1-0.8c0.5-0.7,0.7-1.6,0.6-2.5v-0.3c0.1-1-0.1-2-0.6-2.8c-0.5-0.6-1.3-0.9-2.1-0.8c-0.8,0-1.5,0.4-1.9,1
	c-0.5,0.8-0.7,1.8-0.6,2.7c-0.1,0.9,0.2,1.9,0.6,2.7C175,102.6,175.7,102.9,176.5,102.8L176.5,102.8z M192.1,103.8h-1.4v-11h-3.9
	v-1.3h9.3v1.3h-3.9L192.1,103.8z M201.6,104c-1.2,0.1-2.4-0.4-3.2-1.2c-0.8-1-1.3-2.2-1.2-3.5c-0.1-1.3,0.3-2.5,1.1-3.6
	c0.7-0.9,1.8-1.4,3-1.3c1,0,2,0.4,2.8,1.1c0.7,0.8,1,1.9,1,3v0.9h-6.3c0,0.9,0.3,1.8,0.8,2.5c0.6,0.6,1.4,0.9,2.2,0.8
	c1,0,2.1-0.2,3-0.6v1.2c-0.5,0.2-0.9,0.4-1.4,0.5C202.8,104,202.2,104,201.6,104L201.6,104z M201.2,95.6c-0.7,0-1.3,0.2-1.8,0.7
	c-0.5,0.6-0.7,1.3-0.8,2h4.8c0-0.7-0.2-1.4-0.6-2C202.5,95.8,201.9,95.6,201.2,95.6L201.2,95.6z M209.6,99.1l-3.2-4.5h1.6l2.4,3.5
	l2.4-3.5h1.6l-3.2,4.5l3.4,4.8H213l-2.6-3.8l-2.6,3.8h-1.6L209.6,99.1z M219.5,102.8c0.2,0,0.5,0,0.7,0s0.4-0.1,0.6-0.1v1.1
	c-0.2,0.1-0.4,0.1-0.7,0.2c-0.3,0-0.5,0.1-0.8,0.1c-1.8,0-2.7-1-2.7-2.8v-5.5h-1.3V95l1.3-0.6l0.6-2h0.8v2.2h2.7v1.1H218v5.5
	c0,0.5,0.1,0.9,0.4,1.3C218.7,102.7,219.1,102.9,219.5,102.8L219.5,102.8z"/>
<g class="st2">
	<path d="M69.2,61.9H54.5v-1.7c0.8-0.3,1.6-0.6,2.4-0.8c0.8-0.2,1.6-0.4,2.5-0.6V31.8l0.2-7h-0.5l-2,6.4L44.9,61.9h-1.6L31.6,31.2
		l-2.2-7h-0.5l0.1,7.6v26.9c0.8,0.2,1.5,0.4,2.3,0.6c0.8,0.2,1.5,0.5,2.3,0.8v1.7H21v-1.7c0.8-0.3,1.5-0.6,2.4-0.9
		c0.8-0.3,1.6-0.5,2.5-0.6V23.3c-0.8-0.2-1.7-0.4-2.5-0.6c-0.8-0.3-1.6-0.5-2.4-0.9V20h12.3l10.4,27.4l2,6.2h0.1l2-6.3L58.6,20h10.7
		v1.7c-0.7,0.3-1.5,0.6-2.2,0.9c-0.8,0.3-1.5,0.5-2.3,0.6v35.6c0.8,0.2,1.6,0.3,2.4,0.6c0.7,0.2,1.4,0.5,2.1,0.8V61.9z"/>
	<path d="M73.7,35c-0.6-0.2-1.1-0.4-1.6-0.6c-0.5-0.2-1-0.5-1.5-0.8V32H83v1.5c-0.8,0.6-2,1.1-3.4,1.5l7.6,17.7l1.1,3.7h0.1l0.9-3.8
		L95.1,35c-1.2-0.2-2.3-0.7-3.3-1.4V32H102v1.6c-0.8,0.6-2,1-3.4,1.4l-9.3,26.9c-1,2.6-1.9,4.6-2.7,6.2c-0.9,1.6-1.7,2.8-2.6,3.7
		c-0.9,0.9-1.7,1.6-2.6,2c-0.9,0.4-1.9,0.7-2.9,0.9c-0.4-0.8-0.8-1.6-1.2-2.5c-0.3-0.9-0.6-1.8-0.9-2.6l0.8-1.4h6.2
		c0.2-0.3,0.4-0.6,0.6-0.9c0.2-0.3,0.4-0.7,0.6-1.1c0.2-0.4,0.4-1,0.7-1.7c0.2-0.7,0.5-1.5,0.8-2.6L73.7,35z"/>
	<path d="M110.3,57.8c0.5,0.5,1.1,0.9,1.9,1.2c0.8,0.3,1.9,0.5,3.4,0.5c1.3,0,2.5-0.2,3.6-0.5c1.1-0.3,2.1-0.8,2.9-1.5
		c0.8-0.7,1.5-1.5,1.9-2.4c0.5-0.9,0.7-2,0.7-3.2c0-1.6-0.5-2.9-1.5-4c-1-1.1-2.2-2-3.7-2.9c-1.5-0.8-3-1.7-4.8-2.5
		c-1.7-0.8-3.3-1.7-4.8-2.8c-1.5-1.1-2.7-2.4-3.7-4c-1-1.5-1.5-3.5-1.5-5.8c0-1.7,0.3-3.2,0.9-4.5c0.6-1.3,1.4-2.4,2.5-3.4
		c1.1-0.9,2.4-1.6,3.9-2.1c1.5-0.5,3.2-0.7,5.1-0.7c2.4,0,4.7,0.2,6.7,0.6c2,0.4,3.6,0.8,4.8,1.4c0,0.7-0.1,1.5-0.2,2.4
		c-0.1,0.9-0.2,1.8-0.4,2.8c-0.1,1-0.3,1.9-0.4,2.8c-0.2,0.9-0.3,1.7-0.5,2.4h-1.6l-2.4-8.2c-0.7-0.3-1.6-0.6-2.7-0.7
		c-1.1-0.2-2.3-0.2-3.5-0.2c-2.1,0-3.7,0.6-5,1.7c-1.2,1.1-1.9,2.7-1.9,4.8c0,1.6,0.5,3,1.5,4.1c1,1.1,2.2,2.1,3.7,3
		c1.5,0.9,3.1,1.7,4.8,2.5c1.7,0.8,3.3,1.8,4.8,2.8s2.7,2.4,3.7,3.8c1,1.5,1.5,3.3,1.5,5.5c0,1.8-0.3,3.4-1,4.9
		c-0.7,1.5-1.6,2.7-2.8,3.8c-1.2,1-2.8,1.8-4.5,2.4c-1.8,0.6-3.8,0.8-6.1,0.8c-2.5,0-4.8-0.3-6.8-0.9c-2-0.6-3.4-1.2-4.2-1.9
		c0-0.7,0.1-1.5,0.2-2.5c0.1-1,0.2-1.9,0.4-3c0.1-1,0.3-2,0.4-3c0.2-1,0.3-1.8,0.5-2.5h1.6L110.3,57.8z"/>
	<path d="M160.4,61.9h-16.8v-1.7c0.9-0.3,1.8-0.6,2.7-0.8c0.9-0.2,1.9-0.4,2.9-0.6V23.2H140l-3.2,8.6h-1.5c-0.1-0.8-0.2-1.7-0.3-2.7
		c-0.1-1-0.1-2.1-0.2-3.1c-0.1-1.1-0.1-2.1-0.1-3.1c0-1-0.1-1.9-0.1-2.7h34.8c0,0.8,0,1.7-0.1,2.7c0,1-0.1,2-0.2,3.1
		c-0.1,1.1-0.1,2.1-0.2,3.1c-0.1,1-0.2,1.9-0.3,2.8h-1.6l-3.1-8.6h-9.1v35.6c1,0.2,2,0.4,2.9,0.6c0.9,0.2,1.8,0.5,2.6,0.8V61.9z"/>
</g>
<g class="st2">
	<path class="st0" d="M176.9,35.5l-4-0.5v-1.6c1.2-0.6,2.4-1,3.8-1.3s2.7-0.6,4-0.8h1.5v28.1c0,2.8-0.4,5.2-1.1,7.1
		c-0.7,1.9-1.6,3.4-2.5,4.5c-1,1.2-1.9,2-2.9,2.6c-1,0.6-1.8,0.9-2.4,1.1l-0.7-1.1c0.5-0.2,1-0.7,1.5-1.3s1-1.4,1.4-2.5
		c0.4-1.1,0.8-2.3,1-3.9c0.3-1.5,0.4-3.3,0.4-5.4V35.5z M175.7,21.8c0-1.1,0.3-1.9,1-2.6c0.7-0.6,1.6-1,2.8-1s2.1,0.3,2.8,1
		c0.7,0.6,1,1.5,1,2.6s-0.3,1.9-1,2.5c-0.7,0.6-1.6,0.9-2.8,0.9s-2.1-0.3-2.8-0.9C176,23.8,175.7,22.9,175.7,21.8z"/>
	<path class="st0" d="M205.4,55.1c0-1.1-0.4-2.1-1-2.8c-0.7-0.8-1.6-1.5-2.7-2.2c-1.1-0.7-2.2-1.3-3.4-2c-1.2-0.6-2.4-1.4-3.4-2.2
		c-1.1-0.9-2-1.8-2.7-3c-0.7-1.1-1-2.5-1-4.1c0-1.1,0.2-2.1,0.7-3c0.5-0.9,1.2-1.7,2-2.4c0.8-0.7,1.8-1.2,2.9-1.6s2.3-0.6,3.6-0.6
		c2.2,0,3.9,0.1,5.3,0.4c1.4,0.2,2.7,0.6,4,1c-0.2,1.3-0.3,2.6-0.6,3.9c-0.2,1.3-0.5,2.6-0.9,4h-1.5l-2.3-6.1
		c-0.5-0.2-1-0.3-1.6-0.4c-0.6-0.1-1.2-0.1-1.9-0.1c-0.7,0-1.3,0.1-1.9,0.4c-0.5,0.3-1,0.6-1.4,1c-0.4,0.4-0.7,0.9-0.9,1.4
		c-0.2,0.5-0.3,1-0.3,1.6c0,1.1,0.3,2,1,2.8c0.7,0.8,1.6,1.5,2.7,2.2s2.2,1.3,3.4,1.9c1.2,0.6,2.4,1.4,3.4,2.2
		c1.1,0.8,2,1.7,2.7,2.8c0.7,1.1,1,2.3,1,3.8c0,1.4-0.3,2.6-0.9,3.7c-0.6,1.1-1.4,2-2.4,2.8s-2.2,1.3-3.5,1.8s-2.8,0.6-4.3,0.6
		c-1.7,0-3.3-0.2-4.7-0.4c-1.4-0.3-2.9-0.7-4.5-1.3c0.1-1.4,0.3-2.8,0.5-4.2c0.3-1.3,0.6-2.6,1.1-3.9h1.5l2.6,6.5
		c0.4,0.3,1,0.5,1.6,0.5c0.6,0,1.2,0.1,1.7,0.1c1.8,0,3.2-0.5,4.2-1.4C204.9,57.6,205.4,56.5,205.4,55.1z"/>
</g>
</svg>
